# xmcd
#
# Track frame offsets:
#	150
#	12520
#	25367
#	41047
#	54482
#	67510
#	87232
#	102362
#	116880
#	128170
#	143587
#	157800
#	172642
#	183880
#	196027
#	208457
#	221070
#	234560
#	245735
#	259782
#	273392
#	284615
#	297095
#	309957
#
# Disc length: 4416 seconds
#
# Revision: 0
# Processed by: cddbd v1.5.2PL0 Copyright (c) Steve Scherf et al.
# Submitted via: EasyCDDAExtractor 16.0.6.1
#
DISCID=5a113e18
DTITLE=Νταλάρας Γιώργος - Ο μέτοικος 1-12-Στα ψηλά τα παραθύρια 13-24
DYEAR=1991
DGENRE=Λαϊκή
TTITLE0=Νταλάρας Γιώργος - Ο μέτοικος [Ζ. Μουστακί-Δ. Χριστοδούλου]
TTITLE1=Νταλάρας Γιώργος - Είναι πια καιρός [Σ. Κουγιουμτζή]
TTITLE2=Νταλάρας Γιώργος - Ο θάνατος του ποιητή [Α. Καλδάρα-Πυθαγόρα]
TTITLE3=Νταλάρας Γιώργος - Βασανάκι, βασανάκι [Σ. Κουγιουμτζή]
TTITLE4=Νταλάρας Γιώργος - Ήταν άνθρωπος δικός μας [Γ. Μέτσικα]
TTITLE5=Νταλάρας Γιώργος - Μάνα δεν φυτέψαμε [Μ. Λοΐζου-Λ. Παπαδόπουλου]
TTITLE6=Νταλάρας Γιώργος - Αχ χελιδόνι μου [Μ. Λοΐζου-Λ. Παπαδόπουλου]
TTITLE7=Νταλάρας Γιώργος - Πάνε να πης [Μ. Λοΐζου-Λ. Παπαδόπουλου]
TTITLE8=Νταλάρας Γιώργος - Η ροδιά [Δ. Ξαπλαντέρη-Β. Ρούτη]
TTITLE9=Νταλάρας Γιώργος - Μ' έκοψαν, με χώρισαν στα δυό [Σ. Κουγιουμτζή-Γ. Θέ
TTITLE9=μελη]
TTITLE10=Νταλάρας Γιώργος - Η φαντασία [Α. Καλδάρα]
TTITLE11=Νταλάρας Γιώργος - Έχω ένα καφενέ [Μ. Λοΐζου-Λ. Παπαδόπουλου]
TTITLE12=Νταλάρας Γιώργος-Βίσση Άννα - Στα ψηλά τα παραθύρια (ΤαΜατόκλαδάΣου) 
TTITLE12=[Σ. Κουγιουμτζή-Λ. Παπαδόπουλου]
TTITLE13=Νταλάρας Γιώργος - Έχεις την πόρτα σου κλειστή [Σ. Κουγιουμτζή-Μ. Μπο
TTITLE13=υρμπούλη]
TTITLE14=Νταλάρας Γιώργος - Σαν σβυσμένο καρβουνάκι [Σ. Κουγιουμτζή-Μ. Ελευθερ
TTITLE14=ίου]
TTITLE15=Βίσση Άννα - Παραμύθι ξεχασμένο [Σ. Κουγιουμτζή-Ά. Δασκαλόπουλου]
TTITLE16=Νταλάρας Γιώργος - Αχ τι άδικο [Σ. Κουγιουμτζή-Ά. Δασκαλόπουλου]
TTITLE17=Άνευ ερμηνευτού - Η πρώτη άνοιξη [ορχηστρικό, Σ. Κουγιουμτζή]
TTITLE18=Νταλάρας Γιώργος - Όλα καλά [μουσ. κ στ. Σ. Κουγιουμτζή]
TTITLE19=Νταλάρας Γιώργος - Σαν ραγίσει το ποτήρι [Σ. Κουγιουμτζή-Μ. Ελευθερίο
TTITLE19=υ]
TTITLE20=Βίσση Άννα - Για την αγάπη πες μου [Σ. Κουγιουμτζή-Ά. Δασκαλόπουλου]
TTITLE21=Νταλάρας Γιώργος - Κάποιος χτύπησε την πόρτα [Σ. Κουγιουμτζή-Λ. Παπαδ
TTITLE21=όπουλου]
TTITLE22=Νταλάρας Γιώργος-Βίσση Άννα - Στα χρόνια της υπομονής [Σ. Κουγιουμτζή
TTITLE22=Μ. Ελευθερίου]
TTITLE23=Νταλάρας Γιώργος - Μη μού θυμώνεις μάτια μου [μουσ. κ στ. Σ. Κουγιουμ
TTITLE23=τζή]
EXTD=
EXTT0=
EXTT1=
EXTT2=
EXTT3=
EXTT4=
EXTT5=
EXTT6=
EXTT7=
EXTT8=
EXTT9=
EXTT10=
EXTT11=
EXTT12=
EXTT13=
EXTT14=
EXTT15=
EXTT16=
EXTT17=
EXTT18=
EXTT19=
EXTT20=
EXTT21=
EXTT22=
EXTT23=
PLAYORDER=
